<?xml version="1.0" encoding="iso-8859-1"?>
<!-- Generator: Adobe Illustrator 19.0.0, SVG Export Plug-In . SVG Version: 6.00 Build 0)  -->
<svg xmlns="http://www.w3.org/2000/svg" xmlns:xlink="http://www.w3.org/1999/xlink" version="1.1" id="Capa_1" x="0px" y="0px" viewBox="0 0 512 512" style="enable-background:new 0 0 512 512;" xml:space="preserve" width="512px" height="512px">
<g>
	<g>
		<path d="M256,0C115.39,0,0,115.39,0,256s115.39,256,256,256s256-115.39,256-256S396.61,0,256,0z M256,452    c-107.52,0-195-88.48-195-196S148.48,60,256,60s195,88.48,195,196S363.52,452,256,452z" fill="#383838"/>
	</g>
</g>
<g>
	<g>
		<path d="M256,90c-90.981,0-165,75.019-165,166s74.019,166,165,166s165-75.019,165-166S346.981,90,256,90z M356.606,221.605    l-120,120c-2.93,2.93-6.768,4.395-10.605,4.395c-3.837,0-7.676-1.465-10.605-4.395l-60-60c-5.861-5.859-5.861-15.351-0.001-21.21    c5.859-5.859,15.352-5.859,21.211,0L226,309.789l109.395-109.395c5.859-5.859,15.352-5.859,21.211,0    C362.465,206.253,362.465,215.746,356.606,221.605z" fill="#383838"/>
	</g>
</g>
<g>
</g>
<g>
</g>
<g>
</g>
<g>
</g>
<g>
</g>
<g>
</g>
<g>
</g>
<g>
</g>
<g>
</g>
<g>
</g>
<g>
</g>
<g>
</g>
<g>
</g>
<g>
</g>
<g>
</g>
</svg>
